<svg xmlns="http://www.w3.org/2000/svg" viewBox="119.22 149.49 691.49 208.67"><defs><style>.cls-2{fill:#1a1d36;}.cls-3{fill:#007AFF;}</style></defs><g id="Livello_2" data-name="Livello 2"><g id="Livello_1-2" data-name="Livello 1"><path class="cls-2" d="M183.6,301.13q-16,0-25.16-7.89t-9.22-20.75q0-13.49,9.29-20.91t26.64-7.43h29.42v-3.87q0-18.59-21.06-18.59-17.81,0-21.37,12.86H151.08q2.63-14.42,13.7-22.15t28.89-7.74q20,0,30.5,9.21t10.53,26.72v37.63h10.07v21.21H222.93V284.72h-6.46a.09.09,0,0,0-.07,0,33.24,33.24,0,0,1-13,12Q195.21,301.14,183.6,301.13Zm3.1-16.41a32,32,0,0,0,14.24-3.1,25.53,25.53,0,0,0,10-8.28,19.6,19.6,0,0,0,3.64-11.54v-2.94H186.23q-17,0-17,12.7a11.44,11.44,0,0,0,4.64,9.68Q178.49,284.72,186.7,284.72Z"/><rect class="cls-2" x="263.04" y="236.87" width="21.06" height="62.56"/><path class="cls-2" d="M314.61,299.43V225.87H303.92V204.66h22v17.81h6.51c2.47-6.09,6.42-8.88,11.84-12.08a36,36,0,0,1,18.66-4.8h7.75v18.12H362q-13.15,0-19.9,7.58t-6.73,20.29v47.85Z"/><rect class="cls-2" x="263.04" y="204.66" width="21.06" height="21.06"/><path class="cls-3" d="M619.28,179.49h-22a.19.19,0,0,0-.15.31l55.74,72.67a.17.17,0,0,1,0,.23l-57.58,75.15a.2.2,0,0,0,.15.31H617.6a.18.18,0,0,0,.15-.08L676,252.85a.21.21,0,0,0,0-.24l-56.55-73A.18.18,0,0,0,619.28,179.49Z"/><rect class="cls-3" x="364.47" y="250.23" width="43.73" height="17.93"/><path class="cls-2" d="M752.37,300.28q-8.5,0-13.24-4.33t-4.72-13.17V224a.19.19,0,0,0-.19-.19H717.88a.18.18,0,0,1-.19-.19v-16a.18.18,0,0,1,.19-.19h16.5a.2.2,0,0,0,.19-.19v-27.5a.19.19,0,0,1,.18-.19h20.38a.2.2,0,0,1,.19.19v27.5a.19.19,0,0,0,.19.19H778.2a.18.18,0,0,1,.19.19v16a.18.18,0,0,1-.19.19H755.66a.2.2,0,0,0-.19.19v59.55a.19.19,0,0,0,.19.19h24.86a.19.19,0,0,1,.19.19v16.19a.18.18,0,0,1-.19.19Z"/><path class="cls-2" d="M683.49,243.19l27.64-35.52a.18.18,0,0,0-.15-.3H689.27a.21.21,0,0,0-.15.07l-16.74,21.64a.19.19,0,0,0,0,.23l10.81,13.88A.19.19,0,0,0,683.49,243.19Z"/><path class="cls-2" d="M672.34,276.43l18,23.78a.21.21,0,0,0,.15.07h22.18a.18.18,0,0,0,.15-.3l-29.35-37.71a.19.19,0,0,0-.3,0L672.34,276.2A.19.19,0,0,0,672.34,276.43Z"/><path class="cls-2" d="M576.62,302.14q-14.72,0-25.63-6a40.87,40.87,0,0,1-16.8-17q-5.9-11-5.89-25.7T534.11,228a40.75,40.75,0,0,1,16.49-16.65q10.68-5.88,25.24-5.88,13.93,0,24,5.5a38.21,38.21,0,0,1,15.57,15.64q5.49,10.14,5.5,24.08v7.55a.19.19,0,0,1-.19.19H548.64a.19.19,0,0,0-.19.21q1.29,12.56,8.5,19.38T576.46,285q9,0,14.71-3.41A17.6,17.6,0,0,0,599,271.45a.19.19,0,0,1,.18-.13h21a.19.19,0,0,1,.18.24A37,37,0,0,1,605.5,294Q593.95,302.14,576.62,302.14Zm-27.33-58.38h51.27a.2.2,0,0,0,.19-.22Q599.46,233.48,593,228t-17.19-5.5q-10.68,0-17.65,5.5t-9.09,15.48A.2.2,0,0,0,549.29,243.76Z"/><path class="cls-2" d="M425.52,300.09V226.92a.18.18,0,0,0-.19-.19H415a.19.19,0,0,1-.19-.19V205.7a.19.19,0,0,1,.19-.19h21.61a.2.2,0,0,1,.19.19V220a.18.18,0,0,0,.19.19h6.21a.19.19,0,0,0,.16-.09c3.29-5.2,7.69-7.38,13.18-10.21s12.21-4.25,20.06-4.25q18.57,0,29,10.45t10.45,27.95v56a.18.18,0,0,1-.19.19H495.24a.19.19,0,0,1-.19-.19v-52.3q0-11.46-6.11-17.5t-18-6q-11.92,0-18.12,6t-6.2,17.5v52.3a.18.18,0,0,1-.19.19H425.71A.19.19,0,0,1,425.52,300.09Z"/></g></g></svg>